<?xml version="1.0" encoding="UTF-8" standalone="no"?>
<svg width="36px" height="36px" viewBox="0 0 36 36" version="1.1" xmlns="http://www.w3.org/2000/svg" xmlns:xlink="http://www.w3.org/1999/xlink">
    <!-- Generator: Sketch 3.6.1 (26313) - http://www.bohemiancoding.com/sketch -->
    <title>ic_volume_up_black_24px</title>
    <desc>Created with Sketch.</desc>
    <defs></defs>
    <g id="Landing" stroke="none" stroke-width="1" fill="none" fill-rule="evenodd">
        <g id="land_menu" transform="translate(-63.000000, -483.000000)">
            <g id="ic_volume_up_black_24px" transform="translate(57.000000, 477.000000)">
                <g id="Group">
                    <path d="M6,18 L6,30 L14,30 L24,40 L24,8 L14,18 L6,18 L6,18 Z M33,24 C33,20.46 30.96,17.42 28,15.94 L28,32.04 C30.96,30.58 33,27.54 33,24 L33,24 Z M28,6.46 L28,10.58 C33.78,12.3 38,17.66 38,24 C38,30.34 33.78,35.7 28,37.42 L28,41.54 C36.02,39.72 42,32.56 42,24 C42,15.44 36.02,8.28 28,6.46 L28,6.46 Z" id="Shape" fill="#F2F2F2"></path>
                    <path d="M0,0 L48,0 L48,48 L0,48 L0,0 Z" id="Shape"></path>
                </g>
            </g>
        </g>
    </g>
</svg>