<?xml version="1.0" encoding="UTF-8" standalone="no"?>
<svg width="44px" height="32px" viewBox="0 0 44 32" version="1.1" xmlns="http://www.w3.org/2000/svg" xmlns:xlink="http://www.w3.org/1999/xlink">
    <!-- Generator: Sketch 3.6.1 (26313) - http://www.bohemiancoding.com/sketch -->
    <title>ic_ondemand_video_black_24px</title>
    <desc>Created with Sketch.</desc>
    <defs></defs>
    <g id="Landing" stroke="none" stroke-width="1" fill="none" fill-rule="evenodd">
        <g id="land_menu" transform="translate(-57.000000, -576.000000)">
            <g id="ic_ondemand_video_black_24px" transform="translate(55.000000, 570.000000)">
                <g id="Group">
                    <path d="M0,0 L48,0 L48,48 L0,48 L0,0 L0,0 Z" id="Shape"></path>
                    <path d="M6,6 C3.78,6 2,7.78 2,10 L2,34 C2,36.2 3.78,38 6,38 L16,38 L32,38 L42,38 C44.2,38 45.98,36.2 45.98,34 L46,10 C46,7.78 44.2,6 42,6 L6,6 Z M42,34 L6,34 L6,10 L42,10 L42,34 L42,34 Z M32,22 L18,30 L18,14 L32,22 Z" id="Shape" fill="#FFFFFF"></path>
                </g>
            </g>
        </g>
    </g>
</svg>